<svg width="285" height="276" viewBox="0 0 285 276" fill="none" xmlns="http://www.w3.org/2000/svg">
<g clip-path="url(#clip0_13_291)">
<g opacity="0.5">
<path opacity="0.5" d="M142.5 275.994C221.201 275.994 285 214.211 285 137.997C285 61.7835 221.201 0 142.5 0C63.7994 0 0 61.7835 0 137.997C0 214.211 63.7994 275.994 142.5 275.994Z" fill="url(#paint0_linear_13_291)"/>
</g>
<path d="M142.778 272.202C219.818 272.202 282.272 211.722 282.272 137.115C282.272 62.509 219.818 2.02844 142.778 2.02844C65.7367 2.02844 3.28271 62.509 3.28271 137.115C3.28271 211.722 65.7367 272.202 142.778 272.202Z" fill="#F5F5F5"/>
<path d="M142.908 272.736C170.166 272.779 196.833 265.051 219.585 250.514C214.444 223.31 194.882 221.76 194.882 221.76H87.0067C87.0067 221.76 68.5471 223.227 62.7817 248.253C86.2388 264.231 114.229 272.784 142.908 272.736Z" fill="#015FC7"/>
<path d="M141.426 199.471C178.611 199.471 208.756 170.279 208.756 134.269C208.756 98.2581 178.611 69.0658 141.426 69.0658C104.24 69.0658 74.0957 98.2581 74.0957 134.269C74.0957 170.279 104.24 199.471 141.426 199.471Z" fill="#333333"/>
<path opacity="0.1" d="M119.696 188.578H162.838V222.002C162.838 227.54 160.566 232.852 156.523 236.77C152.479 240.687 146.995 242.889 141.275 242.891C135.554 242.891 130.067 240.69 126.022 236.773C121.977 232.855 119.704 227.542 119.704 222.002V188.578H119.696Z" fill="black"/>
<path d="M121.064 187.028H161.486C161.849 187.028 162.197 187.167 162.454 187.416C162.71 187.664 162.854 188.001 162.854 188.352V220.452C162.855 223.196 162.297 225.913 161.213 228.449C160.128 230.984 158.539 233.288 156.535 235.228C154.531 237.168 152.152 238.707 149.533 239.757C146.915 240.806 144.109 241.346 141.275 241.345C135.554 241.345 130.067 239.144 126.022 235.226C121.977 231.309 119.704 225.996 119.704 220.455V188.352C119.704 188.002 119.847 187.667 120.102 187.418C120.357 187.17 120.702 187.03 121.064 187.028Z" fill="#FDB797"/>
<path opacity="0.1" d="M119.773 204.354C133.678 209.385 148.983 209.426 162.915 204.469V199.329H119.773V204.354Z" fill="black"/>
<path d="M141.426 207.15C175.579 207.15 203.265 180.339 203.265 147.266C203.265 114.192 175.579 87.3811 141.426 87.3811C107.274 87.3811 79.5879 114.192 79.5879 147.266C79.5879 180.339 107.274 207.15 141.426 207.15Z" fill="#FDB797"/>
<path opacity="0.1" d="M97.3779 92.7942C97.3779 92.7942 123.44 144.023 196.956 114.273L179.84 88.2826L149.499 77.7371L97.3779 92.7942Z" fill="black"/>
<path d="M97.3779 92.043C97.3779 92.043 123.44 143.272 196.956 113.514L179.84 87.5234L149.499 76.9779L97.3779 92.043Z" fill="#333333"/>
<path d="M97.1488 88.5713C98.9061 83.3033 101.943 78.5207 106.005 74.6253C118.169 62.9805 138.11 60.525 148.339 47.2472C150.788 50.9324 148.894 56.5986 144.664 58.1803C154.463 58.117 165.818 57.2866 171.359 49.4813C172.728 52.5683 173.165 55.9684 172.618 59.2861C172.071 62.6039 170.562 65.7031 168.268 68.2236C176.953 68.619 186.234 74.3129 186.781 82.7153C187.157 88.3143 183.514 93.6127 178.782 96.8234C174.05 100.034 168.285 101.509 162.629 102.715C146.117 106.246 86.3736 121.022 97.1488 88.5713Z" fill="#333333"/>
<path d="M79.5631 157.657C82.7405 157.657 85.3162 152.98 85.3162 147.21C85.3162 141.441 82.7405 136.764 79.5631 136.764C76.3858 136.764 73.8101 141.441 73.8101 147.21C73.8101 152.98 76.3858 157.657 79.5631 157.657Z" fill="#FDB797"/>
<path d="M203.257 157.657C206.434 157.657 209.01 152.98 209.01 147.21C209.01 141.441 206.434 136.764 203.257 136.764C200.079 136.764 197.503 141.441 197.503 147.21C197.503 152.98 200.079 157.657 203.257 157.657Z" fill="#FDB797"/>
</g>
<defs>
<linearGradient id="paint0_linear_13_291" x1="142.5" y1="275.994" x2="142.5" y2="0" gradientUnits="userSpaceOnUse">
<stop stop-color="#808080" stop-opacity="0.25"/>
<stop offset="0.54" stop-color="#808080" stop-opacity="0.12"/>
<stop offset="1" stop-color="#808080" stop-opacity="0.1"/>
</linearGradient>
<clipPath id="clip0_13_291">
<rect width="285" height="275.994" fill="white"/>
</clipPath>
</defs>
</svg>
